<?xml version="1.0" encoding="UTF-8" standalone="no"?>
<!DOCTYPE svg PUBLIC "-//W3C//DTD SVG 1.1//EN"
 "http://www.w3.org/Graphics/SVG/1.1/DTD/svg11.dtd">
<!-- Generated by graphviz version 2.40.1 (20161225.0304)
 -->
<!-- Title: %3 Pages: 1 -->
<svg width="1111pt" height="556pt"
 viewBox="0.00 0.00 1111.00 556.00" xmlns="http://www.w3.org/2000/svg" xmlns:xlink="http://www.w3.org/1999/xlink">
<g id="graph0" class="graph" transform="scale(1 1) rotate(0) translate(4 552)">
<title>%3</title>
<polygon fill="#ffffff" stroke="transparent" points="-4,4 -4,-552 1107,-552 1107,4 -4,4"/>
<g id="clust4" class="cluster">
<title>cluster_norns</title>
<polygon fill="none" stroke="#000000" points="8,-8 8,-540 1095,-540 1095,-8 8,-8"/>
<text text-anchor="middle" x="551.5" y="-524.8" font-family="Times,serif" font-size="14.00" fill="#000000">norns, software flowchart</text>
</g>
<g id="clust5" class="cluster">
<title>cluster_maiden</title>
<polygon fill="none" stroke="#000000" points="16,-243 16,-465 171,-465 171,-243 16,-243"/>
<text text-anchor="middle" x="93.5" y="-449.8" font-family="Times,serif" font-size="14.00" fill="#000000">controller (maiden)</text>
</g>
<g id="clust6" class="cluster">
<title>cluster_matron</title>
<polygon fill="none" stroke="#000000" points="179,-16 179,-318 767,-318 767,-16 179,-16"/>
<text text-anchor="middle" x="473" y="-302.8" font-family="Times,serif" font-size="14.00" fill="#000000">interpreter (matron)</text>
</g>
<g id="clust7" class="cluster">
<title>cluster_crone</title>
<polygon fill="none" stroke="#000000" points="923,-16 923,-235 1087,-235 1087,-16 923,-16"/>
<text text-anchor="middle" x="1005" y="-219.8" font-family="Times,serif" font-size="14.00" fill="#000000">audio engine (crone)</text>
</g>
<!-- ctl -->
<g id="node1" class="node">
<title>ctl</title>
<polygon fill="none" stroke="#0000ff" stroke-width="2" points="161.5,-434 54.5,-434 54.5,-398 161.5,-398 161.5,-434"/>
<text text-anchor="middle" x="108" y="-412.3" font-family="Times,serif" font-size="14.00" fill="#000000">control logic</text>
</g>
<!-- ui -->
<g id="node2" class="node">
<title>ui</title>
<polygon fill="none" stroke="#0000ff" stroke-width="2" points="130,-362 76,-362 76,-326 130,-326 130,-362"/>
<text text-anchor="middle" x="103" y="-340.3" font-family="Times,serif" font-size="14.00" fill="#000000">UI</text>
</g>
<!-- ctl&#45;&gt;ui -->
<g id="edge3" class="edge">
<title>ctl&#45;&gt;ui</title>
<path fill="none" stroke="#000000" d="M106.0455,-387.8545C105.6931,-382.781 105.3256,-377.4887 104.9728,-372.4078"/>
<polygon fill="#000000" stroke="#000000" points="102.5538,-388.0979 106.7383,-397.8314 109.537,-387.6129 102.5538,-388.0979"/>
<polygon fill="#000000" stroke="#000000" points="108.4632,-372.1467 104.2787,-362.4133 101.48,-372.6317 108.4632,-372.1467"/>
</g>
<!-- shmem -->
<g id="node17" class="node">
<title>shmem</title>
<polygon fill="none" stroke="#000000" stroke-dasharray="5,2" points="372,-362 244,-362 244,-326 372,-326 372,-362"/>
<text text-anchor="middle" x="308" y="-340.3" font-family="Times,serif" font-size="14.00" fill="#000000">shared memory</text>
</g>
<!-- ctl&#45;&gt;shmem -->
<g id="edge2" class="edge">
<title>ctl&#45;&gt;shmem</title>
<path fill="none" stroke="#000000" d="M158.2103,-397.9243C185.5515,-388.0815 219.5594,-375.8386 248.2575,-365.5073"/>
<polygon fill="#000000" stroke="#000000" points="249.5457,-368.7635 257.7691,-362.0831 247.1746,-362.1773 249.5457,-368.7635"/>
</g>
<!-- ncurses -->
<g id="node20" class="node">
<title>ncurses</title>
<polygon fill="none" stroke="#000000" points="137.5,-287 64.5,-287 64.5,-251 137.5,-251 137.5,-287"/>
<text text-anchor="middle" x="101" y="-265.3" font-family="Times,serif" font-size="14.00" fill="#000000">ncurses</text>
</g>
<!-- ui&#45;&gt;ncurses -->
<g id="edge5" class="edge">
<title>ui&#45;&gt;ncurses</title>
<path fill="none" stroke="#000000" d="M102.2429,-315.6072C102.0844,-309.6665 101.9174,-303.4012 101.7589,-297.4581"/>
<polygon fill="#000000" stroke="#000000" points="98.7504,-315.9415 102.5159,-325.8446 105.7479,-315.7548 98.7504,-315.9415"/>
<polygon fill="#000000" stroke="#000000" points="105.252,-297.1513 101.4866,-287.2482 98.2545,-297.3379 105.252,-297.1513"/>
</g>
<!-- weaver -->
<g id="node3" class="node">
<title>weaver</title>
<polygon fill="none" stroke="#0000ff" stroke-width="2" points="458,-287 378,-287 378,-251 458,-251 458,-287"/>
<text text-anchor="middle" x="418" y="-265.3" font-family="Times,serif" font-size="14.00" fill="#000000">weaver.h</text>
</g>
<!-- lua -->
<g id="node4" class="node">
<title>lua</title>
<polygon fill="none" stroke="#0000ff" stroke-width="2" points="471.5,-204 364.5,-204 364.5,-168 471.5,-168 471.5,-204"/>
<text text-anchor="middle" x="418" y="-182.3" font-family="Times,serif" font-size="14.00" fill="#000000">lua interface</text>
</g>
<!-- weaver&#45;&gt;lua -->
<g id="edge10" class="edge">
<title>weaver&#45;&gt;lua</title>
<path fill="none" stroke="#000000" d="M418,-250.9902C418,-240.2963 418,-226.4994 418,-214.3706"/>
<polygon fill="#000000" stroke="#000000" points="421.5001,-214.2612 418,-204.2612 414.5001,-214.2613 421.5001,-214.2612"/>
</g>
<!-- timers -->
<g id="node5" class="node">
<title>timers</title>
<polygon fill="none" stroke="#0000ff" stroke-width="2" points="250.5,-132 187.5,-132 187.5,-96 250.5,-96 250.5,-132"/>
<text text-anchor="middle" x="219" y="-110.3" font-family="Times,serif" font-size="14.00" fill="#000000">timers</text>
</g>
<!-- lua&#45;&gt;timers -->
<g id="edge20" class="edge">
<title>lua&#45;&gt;timers</title>
<path fill="none" stroke="#000000" d="M358.2916,-164.397C326.6362,-152.9437 288.5475,-139.1629 260.2062,-128.9088"/>
<polygon fill="#000000" stroke="#000000" points="357.4465,-167.8132 368.0408,-167.9243 359.8281,-161.2308 357.4465,-167.8132"/>
<polygon fill="#000000" stroke="#000000" points="261.2088,-125.5496 250.6146,-125.4384 258.8272,-132.132 261.2088,-125.5496"/>
</g>
<!-- gpio -->
<g id="node6" class="node">
<title>gpio</title>
<polygon fill="none" stroke="#0000ff" stroke-width="2" points="323,-132 269,-132 269,-96 323,-96 323,-132"/>
<text text-anchor="middle" x="296" y="-110.3" font-family="Times,serif" font-size="14.00" fill="#000000">gpio</text>
</g>
<!-- lua&#45;&gt;gpio -->
<g id="edge13" class="edge">
<title>lua&#45;&gt;gpio</title>
<path fill="none" stroke="#000000" d="M378.5737,-162.732C363.5447,-153.8625 346.5102,-143.8093 331.833,-135.1473"/>
<polygon fill="#000000" stroke="#000000" points="376.8233,-165.763 387.2142,-167.8314 380.3811,-159.7345 376.8233,-165.763"/>
<polygon fill="#000000" stroke="#000000" points="333.4289,-132.0251 323.0379,-129.9568 329.8711,-138.0536 333.4289,-132.0251"/>
</g>
<!-- screen -->
<g id="node7" class="node">
<title>screen</title>
<polygon fill="none" stroke="#0000ff" stroke-width="2" points="406.5,-132 341.5,-132 341.5,-96 406.5,-96 406.5,-132"/>
<text text-anchor="middle" x="374" y="-110.3" font-family="Times,serif" font-size="14.00" fill="#000000">screen</text>
</g>
<!-- lua&#45;&gt;screen -->
<g id="edge22" class="edge">
<title>lua&#45;&gt;screen</title>
<path fill="none" stroke="#000000" d="M406.8969,-167.8314C401.9326,-159.7079 395.9778,-149.9637 390.5072,-141.0118"/>
<polygon fill="#000000" stroke="#000000" points="393.4536,-139.121 385.2526,-132.4133 387.4806,-142.7712 393.4536,-139.121"/>
</g>
<!-- oracle -->
<g id="node8" class="node">
<title>oracle</title>
<polygon fill="none" stroke="#0000ff" stroke-width="2" points="499,-132 425,-132 425,-96 499,-96 499,-132"/>
<text text-anchor="middle" x="462" y="-110.3" font-family="Times,serif" font-size="14.00" fill="#000000">oracle.h</text>
</g>
<!-- lua&#45;&gt;oracle -->
<g id="edge23" class="edge">
<title>lua&#45;&gt;oracle</title>
<path fill="none" stroke="#000000" d="M434.3429,-159.257C437.9266,-153.3929 441.7251,-147.1772 445.3217,-141.2918"/>
<polygon fill="#000000" stroke="#000000" points="431.3311,-157.4734 429.1031,-167.8314 437.3041,-161.1236 431.3311,-157.4734"/>
<polygon fill="#000000" stroke="#000000" points="448.5194,-142.7712 450.7474,-132.4133 442.5464,-139.121 448.5194,-142.7712"/>
</g>
<!-- libmonome -->
<g id="node10" class="node">
<title>libmonome</title>
<polygon fill="none" stroke="#000000" points="612.5,-132 517.5,-132 517.5,-96 612.5,-96 612.5,-132"/>
<text text-anchor="middle" x="565" y="-110.3" font-family="Times,serif" font-size="14.00" fill="#000000">libmonome</text>
</g>
<!-- lua&#45;&gt;libmonome -->
<g id="edge17" class="edge">
<title>lua&#45;&gt;libmonome</title>
<path fill="none" stroke="#000000" d="M464.2972,-163.3238C481.6783,-154.8106 501.4223,-145.1401 518.795,-136.631"/>
<polygon fill="#000000" stroke="#000000" points="462.5354,-160.2894 455.0943,-167.8314 465.6145,-166.5759 462.5354,-160.2894"/>
<polygon fill="#000000" stroke="#000000" points="520.7314,-139.5799 528.1724,-132.038 517.6522,-133.2935 520.7314,-139.5799"/>
</g>
<!-- liblua -->
<g id="node12" class="node">
<title>liblua</title>
<polygon fill="none" stroke="#000000" points="687,-132 631,-132 631,-96 687,-96 687,-132"/>
<text text-anchor="middle" x="659" y="-110.3" font-family="Times,serif" font-size="14.00" fill="#000000">liblua</text>
</g>
<!-- lua&#45;&gt;liblua -->
<g id="edge18" class="edge">
<title>lua&#45;&gt;liblua</title>
<path fill="none" stroke="#000000" d="M481.5639,-167.01C525.8804,-153.7702 583.5379,-136.5447 620.9043,-125.3813"/>
<polygon fill="#000000" stroke="#000000" points="480.3648,-163.7153 471.7851,-169.9314 482.3686,-170.4223 480.3648,-163.7153"/>
<polygon fill="#000000" stroke="#000000" points="622.2979,-128.6179 630.8775,-122.4017 620.294,-121.9108 622.2979,-128.6179"/>
</g>
<!-- MIDI -->
<g id="node13" class="node">
<title>MIDI</title>
<polygon fill="none" stroke="#000000" points="759,-132 705,-132 705,-96 759,-96 759,-132"/>
<text text-anchor="middle" x="732" y="-110.3" font-family="Times,serif" font-size="14.00" fill="#000000">MIDI</text>
</g>
<!-- lua&#45;&gt;MIDI -->
<g id="edge15" class="edge">
<title>lua&#45;&gt;MIDI</title>
<path fill="none" stroke="#000000" d="M481.4221,-171.4574C545.4826,-156.7683 642.2715,-134.5747 694.8376,-122.5213"/>
<polygon fill="#000000" stroke="#000000" points="480.5865,-168.058 471.6217,-173.7046 482.1511,-174.881 480.5865,-168.058"/>
<polygon fill="#000000" stroke="#000000" points="695.7735,-125.8976 704.7383,-120.2511 694.209,-119.0747 695.7735,-125.8976"/>
</g>
<!-- liblo -->
<g id="node21" class="node">
<title>liblo</title>
<polygon fill="none" stroke="#000000" points="624,-60 570,-60 570,-24 624,-24 624,-60"/>
<text text-anchor="middle" x="597" y="-38.3" font-family="Times,serif" font-size="14.00" fill="#000000">liblo</text>
</g>
<!-- oracle&#45;&gt;liblo -->
<g id="edge24" class="edge">
<title>oracle&#45;&gt;liblo</title>
<path fill="none" stroke="#000000" d="M504.909,-91.1152C522.8303,-81.5572 543.4305,-70.5704 560.5969,-61.415"/>
<polygon fill="#000000" stroke="#000000" points="503.2427,-88.0372 496.0662,-95.8314 506.5368,-94.2137 503.2427,-88.0372"/>
<polygon fill="#000000" stroke="#000000" points="562.5652,-64.3319 569.7417,-56.5378 559.2711,-58.1555 562.5652,-64.3319"/>
</g>
<!-- sc -->
<g id="node9" class="node">
<title>sc</title>
<polygon fill="none" stroke="#0000ff" stroke-width="2" points="1050.5,-204 931.5,-204 931.5,-168 1050.5,-168 1050.5,-204"/>
<text text-anchor="middle" x="991" y="-182.3" font-family="Times,serif" font-size="14.00" fill="#000000">sclang classes</text>
</g>
<!-- sclang -->
<g id="node14" class="node">
<title>sclang</title>
<polygon fill="none" stroke="#000000" points="1022.5,-132 959.5,-132 959.5,-96 1022.5,-96 1022.5,-132"/>
<text text-anchor="middle" x="991" y="-110.3" font-family="Times,serif" font-size="14.00" fill="#000000">sclang</text>
</g>
<!-- sc&#45;&gt;sclang -->
<g id="edge31" class="edge">
<title>sc&#45;&gt;sclang</title>
<path fill="none" stroke="#000000" d="M991,-167.8314C991,-160.131 991,-150.9743 991,-142.4166"/>
<polygon fill="#000000" stroke="#000000" points="994.5001,-142.4132 991,-132.4133 987.5001,-142.4133 994.5001,-142.4132"/>
</g>
<!-- sock -->
<g id="node19" class="node">
<title>sock</title>
<polygon fill="none" stroke="#000000" stroke-dasharray="5,2" points="914.5,-132 777.5,-132 777.5,-96 914.5,-96 914.5,-132"/>
<text text-anchor="middle" x="846" y="-110.3" font-family="Times,serif" font-size="14.00" fill="#000000">datagram socket</text>
</g>
<!-- sc&#45;&gt;sock -->
<g id="edge29" class="edge">
<title>sc&#45;&gt;sock</title>
<path fill="none" stroke="#000000" d="M948.458,-167.8314C928.564,-158.4089 905.072,-146.8062 885.5645,-136.7883"/>
<polygon fill="#000000" stroke="#000000" points="887.116,-133.6503 876.6261,-132.1628 883.8988,-139.8673 887.116,-133.6503"/>
</g>
<!-- libevdev -->
<g id="node11" class="node">
<title>libevdev</title>
<polygon fill="none" stroke="#000000" points="360,-287 248,-287 248,-251 360,-251 360,-287"/>
<text text-anchor="middle" x="304" y="-265.3" font-family="Times,serif" font-size="14.00" fill="#000000">libevdev/SDL</text>
</g>
<!-- libevdev&#45;&gt;lua -->
<g id="edge11" class="edge">
<title>libevdev&#45;&gt;lua</title>
<path fill="none" stroke="#000000" d="M328.7363,-250.9902C345.0564,-239.1081 366.638,-223.3951 384.4923,-210.396"/>
<polygon fill="#000000" stroke="#000000" points="386.8941,-212.9767 392.9183,-204.2612 382.7739,-207.3177 386.8941,-212.9767"/>
</g>
<!-- scsynth -->
<g id="node15" class="node">
<title>scsynth</title>
<polygon fill="none" stroke="#000000" points="1027,-60 955,-60 955,-24 1027,-24 1027,-60"/>
<text text-anchor="middle" x="991" y="-38.3" font-family="Times,serif" font-size="14.00" fill="#000000">scsynth</text>
</g>
<!-- sclang&#45;&gt;scsynth -->
<g id="edge32" class="edge">
<title>sclang&#45;&gt;scsynth</title>
<path fill="none" stroke="#000000" d="M991,-85.5726C991,-80.6792 991,-75.5904 991,-70.6901"/>
<polygon fill="#000000" stroke="#000000" points="987.5001,-85.8313 991,-95.8314 994.5001,-85.8314 987.5001,-85.8313"/>
<polygon fill="#000000" stroke="#000000" points="994.5001,-70.4132 991,-60.4133 987.5001,-70.4133 994.5001,-70.4132"/>
</g>
<!-- remote -->
<g id="node16" class="node">
<title>remote</title>
<polygon fill="none" stroke="#000000" stroke-dasharray="5,2" points="171,-204 29,-204 29,-168 171,-168 171,-204"/>
<text text-anchor="middle" x="100" y="-182.3" font-family="Times,serif" font-size="14.00" fill="#000000">remote host (ssh)</text>
</g>
<!-- remote&#45;&gt;ncurses -->
<g id="edge8" class="edge">
<title>remote&#45;&gt;ncurses</title>
<path fill="none" stroke="#000000" d="M105.9241,-204.2612C107.1387,-215.0034 107.5458,-228.8112 107.0879,-240.9137"/>
<polygon fill="#000000" stroke="#000000" points="103.5888,-240.7923 106.4614,-250.9902 110.5753,-241.2267 103.5888,-240.7923"/>
</g>
<!-- shmem&#45;&gt;weaver -->
<g id="edge9" class="edge">
<title>shmem&#45;&gt;weaver</title>
<path fill="none" stroke="#000000" d="M334.6279,-325.8446C349.1131,-315.9684 367.2138,-303.627 382.8448,-292.9694"/>
<polygon fill="#000000" stroke="#000000" points="384.9454,-295.7734 391.236,-287.2482 381.002,-289.9898 384.9454,-295.7734"/>
</g>
<!-- files -->
<g id="node18" class="node">
<title>files</title>
<polygon fill="none" stroke="#000000" stroke-dasharray="5,2" points="172,-509 44,-509 44,-473 172,-473 172,-509"/>
<text text-anchor="middle" x="108" y="-487.3" font-family="Times,serif" font-size="14.00" fill="#000000">local filesystem</text>
</g>
<!-- files&#45;&gt;ctl -->
<g id="edge1" class="edge">
<title>files&#45;&gt;ctl</title>
<path fill="none" stroke="#000000" d="M108,-472.8446C108,-464.3401 108,-454.0076 108,-444.4964"/>
<polygon fill="#000000" stroke="#000000" points="111.5001,-444.2481 108,-434.2482 104.5001,-444.2482 111.5001,-444.2481"/>
</g>
<!-- sock&#45;&gt;sc -->
<g id="edge28" class="edge">
<title>sock&#45;&gt;sc</title>
<path fill="none" stroke="#000000" d="M888.2661,-132.038C908.2024,-141.476 931.7996,-153.1286 951.3881,-163.1874"/>
<polygon fill="#000000" stroke="#000000" points="949.8728,-166.3441 960.3628,-167.8314 953.0899,-160.1271 949.8728,-166.3441"/>
</g>
<!-- sock&#45;&gt;liblo -->
<g id="edge30" class="edge">
<title>sock&#45;&gt;liblo</title>
<path fill="none" stroke="#000000" d="M789.4315,-95.9243C741.8173,-81.7541 675.2017,-62.6097 634.0758,-51.3559"/>
<polygon fill="#000000" stroke="#000000" points="634.7641,-47.9161 624.1964,-48.6725 632.9293,-54.6713 634.7641,-47.9161"/>
</g>
<!-- ncurses&#45;&gt;remote -->
<g id="edge7" class="edge">
<title>ncurses&#45;&gt;remote</title>
<path fill="none" stroke="#000000" d="M95.1046,-250.9902C93.8773,-240.2963 93.4571,-226.4994 93.9015,-214.3706"/>
<polygon fill="#000000" stroke="#000000" points="97.4027,-214.4552 94.516,-204.2612 90.4156,-214.0304 97.4027,-214.4552"/>
</g>
<!-- liblo&#45;&gt;sock -->
<g id="edge27" class="edge">
<title>liblo&#45;&gt;sock</title>
<path fill="none" stroke="#000000" d="M624.0462,-51.1751C658.3539,-61.702 718.7142,-79.3002 767.8734,-93.1974"/>
<polygon fill="#000000" stroke="#000000" points="766.9703,-96.5791 777.5449,-95.9243 768.87,-89.8418 766.9703,-96.5791"/>
</g>
</g>
</svg>
