<?xml version="1.0" encoding="UTF-8" standalone="no"?>
<!DOCTYPE svg PUBLIC "-//W3C//DTD SVG 1.1//EN"
 "http://www.w3.org/Graphics/SVG/1.1/DTD/svg11.dtd">
<!-- Generated by graphviz version 2.40.1 (20161225.0304)
 -->
<!-- Title: %3 Pages: 1 -->
<svg width="1015pt" height="556pt"
 viewBox="0.00 0.00 1015.00 556.00" xmlns="http://www.w3.org/2000/svg" xmlns:xlink="http://www.w3.org/1999/xlink">
<g id="graph0" class="graph" transform="scale(1 1) rotate(0) translate(4 552)">
<title>%3</title>
<polygon fill="#ffffff" stroke="transparent" points="-4,4 -4,-552 1011,-552 1011,4 -4,4"/>
<g id="clust4" class="cluster">
<title>cluster_norns</title>
<polygon fill="none" stroke="#000000" points="8,-8 8,-540 999,-540 999,-8 8,-8"/>
<text text-anchor="middle" x="503.5" y="-524.8" font-family="Times,serif" font-size="14.00" fill="#000000">norns, software flowchart</text>
</g>
<g id="clust5" class="cluster">
<title>cluster_maiden</title>
<polygon fill="none" stroke="#000000" points="29,-318 29,-465 184,-465 184,-318 29,-318"/>
<text text-anchor="middle" x="106.5" y="-449.8" font-family="Times,serif" font-size="14.00" fill="#000000">controller (maiden)</text>
</g>
<g id="clust6" class="cluster">
<title>cluster_matron</title>
<polygon fill="none" stroke="#000000" points="166,-16 166,-310 671,-310 671,-16 166,-16"/>
<text text-anchor="middle" x="418.5" y="-294.8" font-family="Times,serif" font-size="14.00" fill="#000000">interpreter (matron)</text>
</g>
<g id="clust7" class="cluster">
<title>cluster_crone</title>
<polygon fill="none" stroke="#000000" points="827,-16 827,-235 991,-235 991,-16 827,-16"/>
<text text-anchor="middle" x="909" y="-219.8" font-family="Times,serif" font-size="14.00" fill="#000000">audio engine (crone)</text>
</g>
<!-- ctl -->
<g id="node1" class="node">
<title>ctl</title>
<polygon fill="none" stroke="#0000ff" stroke-width="2" points="174.5,-434 37.5,-434 37.5,-398 174.5,-398 174.5,-434"/>
<text text-anchor="middle" x="106" y="-412.3" font-family="Times,serif" font-size="14.00" fill="#000000">control interface</text>
</g>
<!-- shmem -->
<g id="node15" class="node">
<title>shmem</title>
<polygon fill="none" stroke="#000000" stroke-dasharray="5,2" points="377,-362 249,-362 249,-326 377,-326 377,-362"/>
<text text-anchor="middle" x="313" y="-340.3" font-family="Times,serif" font-size="14.00" fill="#000000">shared memory</text>
</g>
<!-- ctl&#45;&gt;shmem -->
<g id="edge2" class="edge">
<title>ctl&#45;&gt;shmem</title>
<path fill="none" stroke="#000000" d="M157.9677,-397.9243C186.3888,-388.0387 221.7702,-375.7321 251.5536,-365.3726"/>
<polygon fill="#000000" stroke="#000000" points="252.7158,-368.6742 261.011,-362.0831 250.4161,-362.0627 252.7158,-368.6742"/>
</g>
<!-- ncurses -->
<g id="node18" class="node">
<title>ncurses</title>
<polygon fill="none" stroke="#000000" points="132.5,-362 59.5,-362 59.5,-326 132.5,-326 132.5,-362"/>
<text text-anchor="middle" x="96" y="-340.3" font-family="Times,serif" font-size="14.00" fill="#000000">ncurses</text>
</g>
<!-- ctl&#45;&gt;ncurses -->
<g id="edge3" class="edge">
<title>ctl&#45;&gt;ncurses</title>
<path fill="none" stroke="#000000" d="M102.0909,-387.8545C101.3862,-382.781 100.6512,-377.4887 99.9455,-372.4078"/>
<polygon fill="#000000" stroke="#000000" points="98.6341,-388.408 103.4766,-397.8314 105.5675,-387.4449 98.6341,-388.408"/>
<polygon fill="#000000" stroke="#000000" points="103.3999,-371.8367 98.5574,-362.4133 96.4664,-372.7997 103.3999,-371.8367"/>
</g>
<!-- lua -->
<g id="node2" class="node">
<title>lua</title>
<polygon fill="none" stroke="#0000ff" stroke-width="2" points="424.5,-204 317.5,-204 317.5,-168 424.5,-168 424.5,-204"/>
<text text-anchor="middle" x="371" y="-182.3" font-family="Times,serif" font-size="14.00" fill="#000000">lua interface</text>
</g>
<!-- oracle -->
<g id="node4" class="node">
<title>oracle</title>
<polygon fill="none" stroke="#0000ff" stroke-width="2" points="248,-132 174,-132 174,-96 248,-96 248,-132"/>
<text text-anchor="middle" x="211" y="-110.3" font-family="Times,serif" font-size="14.00" fill="#000000">oracle.h</text>
</g>
<!-- lua&#45;&gt;oracle -->
<g id="edge19" class="edge">
<title>lua&#45;&gt;oracle</title>
<path fill="none" stroke="#000000" d="M321.4386,-163.6974C300.9926,-154.4967 277.4292,-143.8931 257.3327,-134.8497"/>
<polygon fill="#000000" stroke="#000000" points="320.0697,-166.9194 330.6252,-167.8314 322.9423,-160.5359 320.0697,-166.9194"/>
<polygon fill="#000000" stroke="#000000" points="258.6271,-131.5942 248.0716,-130.6822 255.7545,-137.9777 258.6271,-131.5942"/>
</g>
<!-- gpio -->
<g id="node5" class="node">
<title>gpio</title>
<polygon fill="none" stroke="#0000ff" stroke-width="2" points="320,-132 266,-132 266,-96 320,-96 320,-132"/>
<text text-anchor="middle" x="293" y="-110.3" font-family="Times,serif" font-size="14.00" fill="#000000">gpio</text>
</g>
<!-- lua&#45;&gt;gpio -->
<g id="edge11" class="edge">
<title>lua&#45;&gt;gpio</title>
<path fill="none" stroke="#000000" d="M343.7728,-160.8672C336.0928,-153.7779 327.7407,-146.0683 320.0699,-138.9876"/>
<polygon fill="#000000" stroke="#000000" points="341.5953,-163.6203 351.3173,-167.8314 346.3432,-158.4767 341.5953,-163.6203"/>
<polygon fill="#000000" stroke="#000000" points="322.3984,-136.3738 312.6764,-132.1628 317.6505,-141.5175 322.3984,-136.3738"/>
</g>
<!-- screen -->
<g id="node6" class="node">
<title>screen</title>
<polygon fill="none" stroke="#0000ff" stroke-width="2" points="403.5,-132 338.5,-132 338.5,-96 403.5,-96 403.5,-132"/>
<text text-anchor="middle" x="371" y="-110.3" font-family="Times,serif" font-size="14.00" fill="#000000">screen</text>
</g>
<!-- lua&#45;&gt;screen -->
<g id="edge18" class="edge">
<title>lua&#45;&gt;screen</title>
<path fill="none" stroke="#000000" d="M371,-167.8314C371,-160.131 371,-150.9743 371,-142.4166"/>
<polygon fill="#000000" stroke="#000000" points="374.5001,-142.4132 371,-132.4133 367.5001,-142.4133 374.5001,-142.4132"/>
</g>
<!-- libmonome -->
<g id="node8" class="node">
<title>libmonome</title>
<polygon fill="none" stroke="#000000" points="516.5,-132 421.5,-132 421.5,-96 516.5,-96 516.5,-132"/>
<text text-anchor="middle" x="469" y="-110.3" font-family="Times,serif" font-size="14.00" fill="#000000">libmonome</text>
</g>
<!-- lua&#45;&gt;libmonome -->
<g id="edge15" class="edge">
<title>lua&#45;&gt;libmonome</title>
<path fill="none" stroke="#000000" d="M404.0774,-161.6982C414.3505,-154.1507 425.6712,-145.8334 435.9429,-138.2869"/>
<polygon fill="#000000" stroke="#000000" points="401.7161,-159.09 395.7295,-167.8314 405.8607,-164.7311 401.7161,-159.09"/>
<polygon fill="#000000" stroke="#000000" points="438.2918,-140.9042 444.2784,-132.1628 434.1473,-135.263 438.2918,-140.9042"/>
</g>
<!-- liblua -->
<g id="node10" class="node">
<title>liblua</title>
<polygon fill="none" stroke="#000000" points="591,-132 535,-132 535,-96 591,-96 591,-132"/>
<text text-anchor="middle" x="563" y="-110.3" font-family="Times,serif" font-size="14.00" fill="#000000">liblua</text>
</g>
<!-- lua&#45;&gt;liblua -->
<g id="edge16" class="edge">
<title>lua&#45;&gt;liblua</title>
<path fill="none" stroke="#000000" d="M429.0953,-164.2143C460.2855,-152.5179 497.8353,-138.4368 525.2241,-128.166"/>
<polygon fill="#000000" stroke="#000000" points="427.5841,-161.0429 419.4497,-167.8314 430.042,-167.5972 427.5841,-161.0429"/>
<polygon fill="#000000" stroke="#000000" points="526.6901,-131.3543 534.8244,-124.5658 524.2322,-124.8 526.6901,-131.3543"/>
</g>
<!-- MIDI -->
<g id="node11" class="node">
<title>MIDI</title>
<polygon fill="none" stroke="#000000" points="663,-132 609,-132 609,-96 663,-96 663,-132"/>
<text text-anchor="middle" x="636" y="-110.3" font-family="Times,serif" font-size="14.00" fill="#000000">MIDI</text>
</g>
<!-- lua&#45;&gt;MIDI -->
<g id="edge13" class="edge">
<title>lua&#45;&gt;MIDI</title>
<path fill="none" stroke="#000000" d="M434.379,-168.78C485.8215,-154.8032 556.57,-135.581 599.1353,-124.0161"/>
<polygon fill="#000000" stroke="#000000" points="433.3592,-165.4302 424.6267,-171.4297 435.1946,-172.1853 433.3592,-165.4302"/>
<polygon fill="#000000" stroke="#000000" points="600.0722,-127.3885 608.8047,-121.3889 598.2368,-120.6334 600.0722,-127.3885"/>
</g>
<!-- weaver -->
<g id="node3" class="node">
<title>weaver</title>
<polygon fill="none" stroke="#0000ff" stroke-width="2" points="411,-279 331,-279 331,-243 411,-243 411,-279"/>
<text text-anchor="middle" x="371" y="-257.3" font-family="Times,serif" font-size="14.00" fill="#000000">weaver.h</text>
</g>
<!-- weaver&#45;&gt;lua -->
<g id="edge8" class="edge">
<title>weaver&#45;&gt;lua</title>
<path fill="none" stroke="#000000" d="M371,-242.8446C371,-234.3401 371,-224.0076 371,-214.4964"/>
<polygon fill="#000000" stroke="#000000" points="374.5001,-214.2481 371,-204.2482 367.5001,-214.2482 374.5001,-214.2481"/>
</g>
<!-- liblo -->
<g id="node19" class="node">
<title>liblo</title>
<polygon fill="none" stroke="#000000" points="450,-60 396,-60 396,-24 450,-24 450,-60"/>
<text text-anchor="middle" x="423" y="-38.3" font-family="Times,serif" font-size="14.00" fill="#000000">liblo</text>
</g>
<!-- oracle&#45;&gt;liblo -->
<g id="edge20" class="edge">
<title>oracle&#45;&gt;liblo</title>
<path fill="none" stroke="#000000" d="M257.9391,-98.0584C296.5927,-84.9308 350.6366,-66.5762 386.208,-54.4954"/>
<polygon fill="#000000" stroke="#000000" points="256.7566,-94.7636 248.4133,-101.2936 259.0077,-101.3918 256.7566,-94.7636"/>
<polygon fill="#000000" stroke="#000000" points="387.3797,-57.7939 395.7229,-51.2639 385.1286,-51.1657 387.3797,-57.7939"/>
</g>
<!-- sc -->
<g id="node7" class="node">
<title>sc</title>
<polygon fill="none" stroke="#0000ff" stroke-width="2" points="954.5,-204 835.5,-204 835.5,-168 954.5,-168 954.5,-204"/>
<text text-anchor="middle" x="895" y="-182.3" font-family="Times,serif" font-size="14.00" fill="#000000">sclang classes</text>
</g>
<!-- sclang -->
<g id="node12" class="node">
<title>sclang</title>
<polygon fill="none" stroke="#000000" points="926.5,-132 863.5,-132 863.5,-96 926.5,-96 926.5,-132"/>
<text text-anchor="middle" x="895" y="-110.3" font-family="Times,serif" font-size="14.00" fill="#000000">sclang</text>
</g>
<!-- sc&#45;&gt;sclang -->
<g id="edge27" class="edge">
<title>sc&#45;&gt;sclang</title>
<path fill="none" stroke="#000000" d="M895,-167.8314C895,-160.131 895,-150.9743 895,-142.4166"/>
<polygon fill="#000000" stroke="#000000" points="898.5001,-142.4132 895,-132.4133 891.5001,-142.4133 898.5001,-142.4132"/>
</g>
<!-- sock -->
<g id="node17" class="node">
<title>sock</title>
<polygon fill="none" stroke="#000000" stroke-dasharray="5,2" points="818.5,-132 681.5,-132 681.5,-96 818.5,-96 818.5,-132"/>
<text text-anchor="middle" x="750" y="-110.3" font-family="Times,serif" font-size="14.00" fill="#000000">datagram socket</text>
</g>
<!-- sc&#45;&gt;sock -->
<g id="edge25" class="edge">
<title>sc&#45;&gt;sock</title>
<path fill="none" stroke="#000000" d="M852.458,-167.8314C832.564,-158.4089 809.072,-146.8062 789.5645,-136.7883"/>
<polygon fill="#000000" stroke="#000000" points="791.116,-133.6503 780.6261,-132.1628 787.8988,-139.8673 791.116,-133.6503"/>
</g>
<!-- libevdev -->
<g id="node9" class="node">
<title>libevdev</title>
<polygon fill="none" stroke="#000000" points="313,-279 201,-279 201,-243 313,-243 313,-279"/>
<text text-anchor="middle" x="257" y="-257.3" font-family="Times,serif" font-size="14.00" fill="#000000">libevdev/SDL</text>
</g>
<!-- libevdev&#45;&gt;lua -->
<g id="edge9" class="edge">
<title>libevdev&#45;&gt;lua</title>
<path fill="none" stroke="#000000" d="M284.5962,-242.8446C299.6081,-232.9684 318.367,-220.627 334.5665,-209.9694"/>
<polygon fill="#000000" stroke="#000000" points="336.8323,-212.6683 343.2628,-204.2482 332.9849,-206.8204 336.8323,-212.6683"/>
</g>
<!-- scsynth -->
<g id="node13" class="node">
<title>scsynth</title>
<polygon fill="none" stroke="#000000" points="931,-60 859,-60 859,-24 931,-24 931,-60"/>
<text text-anchor="middle" x="895" y="-38.3" font-family="Times,serif" font-size="14.00" fill="#000000">scsynth</text>
</g>
<!-- sclang&#45;&gt;scsynth -->
<g id="edge28" class="edge">
<title>sclang&#45;&gt;scsynth</title>
<path fill="none" stroke="#000000" d="M895,-85.5726C895,-80.6792 895,-75.5904 895,-70.6901"/>
<polygon fill="#000000" stroke="#000000" points="891.5001,-85.8313 895,-95.8314 898.5001,-85.8314 891.5001,-85.8313"/>
<polygon fill="#000000" stroke="#000000" points="898.5001,-70.4132 895,-60.4133 891.5001,-70.4133 898.5001,-70.4132"/>
</g>
<!-- remote -->
<g id="node14" class="node">
<title>remote</title>
<polygon fill="none" stroke="#000000" stroke-dasharray="5,2" points="158,-279 16,-279 16,-243 158,-243 158,-279"/>
<text text-anchor="middle" x="87" y="-257.3" font-family="Times,serif" font-size="14.00" fill="#000000">remote host (ssh)</text>
</g>
<!-- remote&#45;&gt;ncurses -->
<g id="edge6" class="edge">
<title>remote&#45;&gt;ncurses</title>
<path fill="none" stroke="#000000" d="M94.6842,-279.2612C96.9342,-290.0034 98.6722,-303.8112 99.3808,-315.9137"/>
<polygon fill="#000000" stroke="#000000" points="95.8856,-316.1158 99.7256,-325.9902 102.8815,-315.8764 95.8856,-316.1158"/>
</g>
<!-- shmem&#45;&gt;weaver -->
<g id="edge7" class="edge">
<title>shmem&#45;&gt;weaver</title>
<path fill="none" stroke="#000000" d="M325.5851,-325.9902C333.4354,-314.7562 343.6786,-300.0979 352.4496,-287.5463"/>
<polygon fill="#000000" stroke="#000000" points="355.38,-289.463 358.2391,-279.2612 349.6422,-285.4534 355.38,-289.463"/>
</g>
<!-- files -->
<g id="node16" class="node">
<title>files</title>
<polygon fill="none" stroke="#000000" stroke-dasharray="5,2" points="170,-509 42,-509 42,-473 170,-473 170,-509"/>
<text text-anchor="middle" x="106" y="-487.3" font-family="Times,serif" font-size="14.00" fill="#000000">local filesystem</text>
</g>
<!-- files&#45;&gt;ctl -->
<g id="edge1" class="edge">
<title>files&#45;&gt;ctl</title>
<path fill="none" stroke="#000000" d="M106,-472.8446C106,-464.3401 106,-454.0076 106,-444.4964"/>
<polygon fill="#000000" stroke="#000000" points="109.5001,-444.2481 106,-434.2482 102.5001,-444.2482 109.5001,-444.2481"/>
</g>
<!-- sock&#45;&gt;sc -->
<g id="edge24" class="edge">
<title>sock&#45;&gt;sc</title>
<path fill="none" stroke="#000000" d="M792.2661,-132.038C812.2024,-141.476 835.7996,-153.1286 855.3881,-163.1874"/>
<polygon fill="#000000" stroke="#000000" points="853.8728,-166.3441 864.3628,-167.8314 857.0899,-160.1271 853.8728,-166.3441"/>
</g>
<!-- sock&#45;&gt;liblo -->
<g id="edge26" class="edge">
<title>sock&#45;&gt;liblo</title>
<path fill="none" stroke="#000000" d="M681.1604,-97.572C613.9309,-82.3971 514.2387,-60.5561 460.4689,-49.3082"/>
<polygon fill="#000000" stroke="#000000" points="460.8535,-45.8134 450.3505,-47.205 459.4289,-52.6669 460.8535,-45.8134"/>
</g>
<!-- ncurses&#45;&gt;remote -->
<g id="edge5" class="edge">
<title>ncurses&#45;&gt;remote</title>
<path fill="none" stroke="#000000" d="M88.3687,-325.9902C86.1107,-315.2963 84.3607,-301.4994 83.636,-289.3706"/>
<polygon fill="#000000" stroke="#000000" points="87.1298,-289.1303 83.2761,-279.2612 80.1342,-289.3795 87.1298,-289.1303"/>
</g>
<!-- liblo&#45;&gt;sock -->
<g id="edge23" class="edge">
<title>liblo&#45;&gt;sock</title>
<path fill="none" stroke="#000000" d="M450.0354,-48.871C498.1581,-60.0844 599.9395,-82.6089 671.5914,-97.9958"/>
<polygon fill="#000000" stroke="#000000" points="670.9817,-101.4445 681.4931,-100.1177 672.4485,-94.5999 670.9817,-101.4445"/>
</g>
</g>
</svg>
